<svg xmlns="http://www.w3.org/2000/svg" viewBox="0 0 28 28" width="28" height="28" fill="none">
  <!-- Glencairn glass (slightly smaller, offset down to make room for aroma) -->
  <path d="M10.5 10 C10.5 10 9.2 16 9.2 17.5 C9.2 19.8 11 21.2 12.5 21.7 L12.5 24 L11 24 C10.6 24 10.6 25 11 25 L17 25 C17.4 25 17.4 24 17 24 L15.5 24 L15.5 21.7 C17 21.2 18.8 19.8 18.8 17.5 C18.8 16 17.5 10 17.5 10 C17.3 9.5 17 9.5 16.5 9.5 L11.5 9.5 C11 9.5 10.7 9.5 10.5 10Z"
        fill="#0A0A0A" stroke="none"/>
  <!-- Three aroma lines rising from glass -->
  <path d="M11.5 8.5 C11.5 7 12.5 7 12.5 5.5 C12.5 4.5 11.5 4.5 11.5 3.5"
        stroke="#0A0A0A" stroke-width="1.3" stroke-linecap="round" fill="none"/>
  <path d="M14 8 C14 6.5 15 6.5 15 5 C15 4 14 4 14 3"
        stroke="#0A0A0A" stroke-width="1.3" stroke-linecap="round" fill="none"/>
  <path d="M16.5 8.5 C16.5 7 17.5 7 17.5 5.5 C17.5 4.5 16.5 4.5 16.5 3.5"
        stroke="#0A0A0A" stroke-width="1.3" stroke-linecap="round" fill="none"/>
</svg>
