<svg xmlns="http://www.w3.org/2000/svg" viewBox="0 0 28 28" width="28" height="28" fill="none">
  <!-- Compass Rose / Tasting Wheel with center droplet -->
  <!-- Four directional points -->
  <path d="M14 3 L15.5 10.5 L14 9 L12.5 10.5 Z" fill="#0A0A0A"/>
  <path d="M14 25 L15.5 17.5 L14 19 L12.5 17.5 Z" fill="#0A0A0A"/>
  <path d="M3 14 L10.5 12.5 L9 14 L10.5 15.5 Z" fill="#0A0A0A"/>
  <path d="M25 14 L17.5 12.5 L19 14 L17.5 15.5 Z" fill="#0A0A0A"/>
  <!-- Diagonal tick marks -->
  <line x1="7" y1="7" x2="9.5" y2="9.5" stroke="#0A0A0A" stroke-width="1.5" stroke-linecap="round"/>
  <line x1="21" y1="7" x2="18.5" y2="9.5" stroke="#0A0A0A" stroke-width="1.5" stroke-linecap="round"/>
  <line x1="7" y1="21" x2="9.5" y2="18.5" stroke="#0A0A0A" stroke-width="1.5" stroke-linecap="round"/>
  <line x1="21" y1="21" x2="18.5" y2="18.5" stroke="#0A0A0A" stroke-width="1.5" stroke-linecap="round"/>
  <!-- Center circle ring -->
  <circle cx="14" cy="14" r="3.5" stroke="#0A0A0A" stroke-width="1.5" fill="none"/>
  <!-- Center whiskey droplet -->
  <path d="M14 12.5 C14 12.5 12.8 14 12.8 14.8 C12.8 15.5 13.3 16 14 16 C14.7 16 15.2 15.5 15.2 14.8 C15.2 14 14 12.5 14 12.5Z" fill="#0A0A0A"/>
</svg>
